<?xml version="1.0" standalone="no"?>
<!DOCTYPE svg PUBLIC "-//W3C//DTD SVG 20010904//EN"
 "http://www.w3.org/TR/2001/REC-SVG-20010904/DTD/svg10.dtd">
<svg version="1.0" xmlns="http://www.w3.org/2000/svg"
 width="365.000000pt" height="365.000000pt" viewBox="0 0 365.000000 365.000000"
 preserveAspectRatio="xMidYMid meet">
<metadata>
Created by potrace 1.14, written by Peter Selinger 2001-2017
</metadata>
<g transform="translate(0.000000,365.000000) scale(0.100000,-0.100000)"
fill="#000000" stroke="none">
<path d="M1365 3310 c-30 -13 -108 -99 -140 -155 -16 -27 -44 -71 -62 -97
l-33 -48 0 -173 c0 -172 0 -174 -22 -173 -20 1 -23 -6 -33 -90 -7 -50 -15 -95
-18 -101 -9 -15 -89 -24 -287 -32 -96 -4 -182 -10 -190 -14 -11 -4 -34 23 -83
99 -37 58 -74 107 -82 110 -9 4 -40 -16 -80 -51 -60 -53 -65 -60 -62 -94 2
-23 19 -59 45 -98 23 -34 42 -66 42 -70 0 -10 -82 -48 -125 -58 -35 -8 -57
-24 -49 -36 3 -5 59 -9 124 -9 109 0 120 -2 130 -20 10 -19 8 -20 -48 -20 -41
0 -64 -5 -72 -15 -13 -15 -11 -16 28 -27 10 -3 8 -11 -8 -31 -40 -51 -10 -67
129 -67 l76 0 45 -72 c25 -39 46 -74 48 -77 4 -11 -192 -2 -236 10 -49 14
-116 7 -140 -14 -9 -8 -33 -18 -52 -22 -84 -17 -150 -46 -150 -66 0 -14 62
-36 138 -49 41 -7 94 -24 120 -39 46 -26 51 -26 251 -28 l204 -2 177 -278 178
-278 11 -325 c10 -323 22 -427 56 -521 9 -24 21 -59 27 -78 5 -19 25 -68 44
-107 19 -40 34 -78 34 -84 0 -7 364 -10 1175 -10 l1175 0 0 794 c0 437 -4 797
-8 800 -5 3 -59 11 -120 18 -317 35 -639 -76 -874 -301 l-78 -74 0 97 c0 54
-4 127 -10 164 -5 37 -11 115 -12 173 l-3 107 80 -5 c44 -2 87 -7 95 -10 54
-21 156 -46 220 -53 41 -5 98 -16 125 -24 77 -24 259 -22 338 5 34 11 70 30
80 42 24 30 54 92 62 127 6 26 3 30 -21 36 -15 4 -102 3 -193 -2 -252 -12
-653 -9 -738 6 l-73 14 0 44 0 44 38 -8 c60 -14 674 -5 751 11 170 35 263 74
286 122 18 38 19 59 3 66 -7 2 -74 -3 -148 -11 -144 -17 -688 -21 -847 -7
l-83 7 0 49 0 49 99 0 c56 0 103 -4 106 -10 8 -13 486 -13 575 0 35 5 69 15
75 22 14 18 52 38 71 38 8 0 34 13 57 28 23 16 50 31 60 35 12 5 17 17 17 47
l0 40 -192 0 c-209 0 -306 -8 -554 -46 -88 -13 -196 -23 -240 -23 -43 1 -71 3
-61 6 14 4 17 16 17 73 0 57 -3 70 -18 74 -34 11 -59 126 -27 126 13 0 15 24
15 158 0 218 -34 349 -103 397 -38 27 -69 18 -128 -34 -52 -47 -63 -63 -109
-161 -11 -25 -32 -67 -46 -95 -22 -42 -25 -60 -22 -119 l4 -69 -141 5 c-101 4
-152 10 -183 23 -42 17 -121 16 -168 -2 -16 -6 -17 7 -10 213 7 248 12 227
-74 284 -36 24 -55 30 -100 29 -30 0 -64 -4 -75 -9z m-196 -981 c13 -30 12
-32 -15 -55 -16 -13 -34 -23 -39 -24 -6 0 -30 -11 -55 -24 -47 -25 -120 -48
-208 -65 -95 -19 -106 -16 -141 37 l-31 47 43 8 c23 4 65 15 93 22 28 8 74 15
103 15 57 0 136 20 191 49 46 25 43 25 59 -10z m-4 -226 c-4 -21 -16 -66 -28
-100 -21 -60 -22 -62 -72 -77 -27 -8 -72 -23 -99 -32 -28 -10 -51 -13 -53 -8
-2 5 -25 42 -53 83 -27 41 -47 78 -44 83 3 4 16 8 28 8 13 0 37 7 52 15 16 8
38 15 49 15 11 0 61 11 110 24 121 32 117 33 110 -11z m-41 -379 c3 -9 6 -50
6 -92 l0 -77 -50 75 c-27 41 -50 78 -50 83 0 4 10 7 23 7 12 0 29 5 37 10 21
13 27 12 34 -6z"/>
</g>
</svg>
